<svg width="40" height="41" viewBox="0 0 40 41" fill="none" xmlns="http://www.w3.org/2000/svg">
<circle cx="20" cy="20.4736" r="20" fill="#F6F8FA"/>
<g clip-path="url(#clip0_18066_46976)">
<path d="M10.3241 19.7716C11.3322 19.7716 11.8914 19.7716 12.0017 19.7716C12.238 19.7716 12.3246 19.6221 12.4585 19.4061C13.443 17.7695 13.9944 16.8474 14.1204 16.6397C14.2228 16.4736 14.3567 16.4403 14.5221 16.5317C14.6087 16.5816 14.6481 16.6646 14.6481 16.7809C14.6481 18.16 14.6481 20.5857 14.6481 24.0582C14.6481 24.1994 14.6402 24.2825 14.6245 24.324C14.5536 24.4653 14.3567 24.5317 14.2228 24.4237C14.1913 24.3988 14.1519 24.3406 14.0968 24.2493C13.2776 22.8287 12.7184 21.865 12.4113 21.3334C12.3325 21.2005 12.2143 21.1257 12.0568 21.1257C11.9702 21.1257 11.3952 21.1257 10.3319 21.1257C9.26864 21.1257 8.69367 21.1257 8.60703 21.1257C8.44951 21.1257 8.33136 21.2005 8.2526 21.3334C7.94543 21.8567 7.38622 22.8287 6.56709 24.2493C6.51983 24.3406 6.47257 24.3905 6.44107 24.4237C6.30717 24.5317 6.11027 24.4653 6.03938 24.324C6.02363 24.2908 6.01575 24.1994 6.01575 24.0582C6 20.5774 6 18.1516 6 16.7726C6 16.6563 6.03938 16.5649 6.12602 16.5234C6.29142 16.432 6.42532 16.4736 6.52771 16.6314C6.65373 16.8391 7.21294 17.7612 8.18959 19.3978C8.32349 19.6221 8.40225 19.7633 8.64641 19.7633C8.75668 19.7633 9.31589 19.7633 10.3241 19.7633V19.7716Z" fill="#EF3F34"/>
<path d="M24.8084 24.0167C24.895 24.1662 24.8399 24.349 24.706 24.4321C24.6509 24.4653 24.58 24.4736 24.4933 24.4736C20.3111 24.4736 18.1608 24.4736 18.0348 24.4736C17.8458 24.4736 17.6804 24.4154 17.5465 24.2908C17.4914 24.241 17.389 24.0915 17.263 23.8589C17.2472 23.8339 17.0345 23.4601 16.6092 22.7374C16.5147 22.5795 16.5068 22.3968 16.5068 22.1725C16.5068 21.3666 16.5068 19.6221 16.5068 16.9388C16.5068 16.7893 16.5147 16.6813 16.5383 16.6314C16.625 16.4321 16.9006 16.4238 17.0109 16.6148C17.3732 17.2213 17.6646 17.7197 17.8852 18.0935C18.0112 18.3095 18.0112 18.4757 18.0112 18.7664C18.0112 19.2981 18.0112 20.0042 18.0112 20.8682C18.0112 21.026 17.9718 21.1756 17.8931 21.3168C17.8143 21.4497 17.6725 21.6906 17.4599 22.0478C17.3969 22.1558 17.3653 22.2472 17.4047 22.3718C17.452 22.5047 17.5623 22.5712 17.7355 22.5712C19.1454 22.5712 20.8624 22.5712 22.8708 22.5712C23.0914 22.5712 23.4222 22.5546 23.6742 22.5712C23.8869 22.5878 24.0444 22.6875 24.1547 22.8786C24.2886 23.1195 24.5091 23.4933 24.8163 24.0167H24.8084Z" fill="#EF3F34"/>
<path d="M29.936 16.482C31.4719 16.482 32.3304 16.482 32.5037 16.482C32.6848 16.482 32.8345 16.5402 32.9605 16.6648C33.0156 16.7146 33.1101 16.8558 33.244 17.0968C33.5276 17.5786 33.7324 17.9358 33.8584 18.1518C34.0001 18.3844 34.0001 18.5672 34.0001 18.8828C34.0001 21.3584 34.0001 23.0365 34.0001 23.9171C34.0001 24.0833 33.945 24.2162 33.8426 24.3242C33.693 24.4737 33.5355 24.4654 33.307 24.4654C33.2598 24.4654 32.1492 24.4654 29.9596 24.4654C28.4238 24.4654 27.5653 24.4654 27.392 24.4654C27.2108 24.4654 27.0612 24.4072 26.9352 24.2826C26.88 24.2328 26.7855 24.0916 26.6516 23.8507C26.3681 23.3688 26.1633 23.0116 26.0373 22.7956C25.8955 22.563 25.8955 22.3803 25.8955 22.0646C25.8955 19.589 25.8955 17.9109 25.8955 17.0303C25.8955 16.8642 25.9506 16.7312 26.053 16.6232C26.2027 16.4737 26.3602 16.482 26.5886 16.482C26.6359 16.482 27.7464 16.482 29.936 16.482ZM33.2677 18.5422C33.2204 18.4426 33.1416 18.3927 33.0314 18.3927C31.2277 18.3927 29.5028 18.3927 27.8567 18.3927C27.6755 18.3927 27.4314 18.3595 27.4314 18.6336C27.4314 19.265 27.4314 19.6637 27.4314 19.8133C27.4314 20.0459 27.5731 20.0625 27.7701 20.0625C30.2904 20.0625 31.7318 20.0625 32.1099 20.0625C32.2122 20.0625 32.2989 20.0625 32.3619 20.0376C32.5352 19.9877 32.6218 19.8963 32.7242 19.7219C32.9762 19.2899 33.1495 18.9825 33.2519 18.8081C33.2992 18.725 33.3228 18.6419 33.2834 18.5506L33.2677 18.5422ZM33.2677 22.4052C33.3149 22.3138 33.2834 22.2307 33.2362 22.1476C33.1338 21.9732 32.9526 21.6658 32.7084 21.2338C32.6061 21.0594 32.5273 20.968 32.3461 20.9182C32.2831 20.9015 32.2044 20.8932 32.0941 20.8932C31.7239 20.8932 30.2747 20.8932 27.7543 20.8932C27.5574 20.8932 27.4156 20.9098 27.4156 21.1425C27.4156 21.292 27.4156 21.6907 27.4156 22.3221C27.4156 22.5962 27.6598 22.563 27.8409 22.563C29.4871 22.563 31.212 22.563 33.0235 22.563C33.1338 22.563 33.2125 22.5132 33.2598 22.4135L33.2677 22.4052Z" fill="#EF3F34"/>
</g>
<circle cx="20" cy="20.4736" r="19.5" stroke="black" stroke-opacity="0.05"/>
<defs>
<clipPath id="clip0_18066_46976">
<rect width="28" height="9" fill="white" transform="translate(6 16.4736)"/>
</clipPath>
</defs>
</svg>
